<svg width="1543" height="315" viewBox="0 0 1543 315" fill="none" xmlns="http://www.w3.org/2000/svg">
<g clip-path="url(#clip0_34_2543)">
<path d="M1434.71 211.065L1534.5 245.001H1391.33L1372.97 242.998L1364.07 237.435L1394.44 211.065H1434.71Z" fill="#172B4D"/>
<path d="M1421.59 148.758V143.418C1421.59 143.418 1409.9 120.275 1408.24 120.052C1406.57 119.83 1270.85 63.3086 1270.85 63.3086L1322.58 164.001L1343.05 185.809L1421.59 148.758Z" fill="white" stroke="#36B37E" stroke-width="1.35786" stroke-miterlimit="10"/>
<mask id="mask0_34_2543" style="mask-type:alpha" maskUnits="userSpaceOnUse" x="1269" y="62" width="154" height="126">
<path d="M1422 149.363V144.022C1422 144.022 1410.32 120.879 1408.65 120.657C1406.98 120.434 1271.26 63.9131 1271.26 63.9131L1322.99 164.606L1343.46 186.413L1422 149.363Z" fill="white" stroke="#36B37E" stroke-width="1.35786" stroke-miterlimit="10"/>
</mask>
<g mask="url(#mask0_34_2543)">
<path d="M1364.96 122.611L1347.94 123.168L1340.15 109.371L1323.8 110.15L1331.48 123.613L1315.23 124.169L1322.8 137.854L1339.15 137.52L1356.06 137.075L1364.29 151.317L1381.76 151.206L1390.44 165.892H1408.79L1399.78 150.983L1390.99 136.297L1373.3 136.742L1364.96 122.611Z" fill="#C5E9DA"/>
<path d="M1356.84 108.703L1348.83 95.1289L1332.37 96.019L1340.15 109.371L1356.84 108.703Z" fill="#36B37E"/>
<path d="M1382.43 121.944L1373.97 107.925L1356.84 108.704L1364.96 122.611L1382.43 121.944Z" fill="#36B37E"/>
<path d="M1391.55 107.145L1382.98 93.2373L1365.74 94.1274L1373.97 107.924L1391.55 107.145Z" fill="#36B37E"/>
<path d="M1400.34 121.387L1382.43 121.943L1390.99 136.296L1409.24 135.962L1427.93 135.517L1418.69 120.83L1409.68 106.366L1391.55 107.145L1400.34 121.387Z" fill="#36B37E"/>
<path d="M1307.89 110.817L1323.8 110.15L1316.35 96.7984L1332.37 96.0195L1324.8 82.7793L1309 83.7807L1293.54 84.782L1300.66 97.6885L1285.31 98.4673L1270.4 99.2461L1277.19 112.153L1292.32 111.485L1299.44 124.725L1315.23 124.169L1307.89 110.817Z" fill="#172B4D"/>
<path d="M1284.08 125.17L1291.09 138.521L1306.78 138.187L1299.44 124.725L1284.08 125.17Z" fill="#36B37E"/>
<path d="M1271.74 73.2103L1278.41 85.7829L1293.54 84.7816L1286.53 72.0977L1271.74 73.2103Z" fill="#36B37E"/>
<path d="M1348.83 95.1292L1365.74 94.1278L1357.62 80.665L1349.72 67.4248L1333.37 68.6487L1317.35 69.8726L1324.8 82.779L1341.04 81.7777L1348.83 95.1292Z" fill="#36B37E"/>
<path d="M1392.11 78.4395L1374.64 79.5521L1382.98 93.2374L1400.78 92.3473L1392.11 78.4395Z" fill="#36B37E"/>
<path d="M1428.15 105.588L1419.03 91.3467L1400.78 92.348L1409.68 106.367L1428.15 105.588Z" fill="#36B37E"/>
<path d="M1306.78 138.187L1314.23 151.984L1330.47 151.761L1322.8 137.854L1306.78 138.187Z" fill="#36B37E"/>
</g>
<path d="M1391.33 145.197L1329.03 158.549L1327.47 162.665L1341.38 181.691L1391.33 145.197Z" fill="#172B4D"/>
<path d="M1426.93 149.426L1488.11 0.222656L1448.73 160.774L1444.5 162.221L1426.93 149.426Z" fill="white" stroke="#36B37E" stroke-width="1.35786" stroke-miterlimit="10"/>
<path d="M1449.06 159.328L1430.82 139.857L1426.93 149.426L1444.5 162.221L1448.73 160.775L1449.06 159.328Z" fill="#36B37E"/>
<path d="M1444.5 162.221L1431.93 151.54L1412.46 136.742L1363.18 156.547L1360.96 168.452L1372.97 185.475L1444.5 162.221Z" fill="white" stroke="#36B37E" stroke-width="1.35786" stroke-miterlimit="10"/>
<path d="M1419.25 170.343L1455.63 158.549L1434.71 211.065L1404.68 212.956L1419.25 170.343Z" fill="white" stroke="#36B37E" stroke-width="1.35786" stroke-miterlimit="10"/>
<path d="M1380.2 182.915L1372.97 185.474L1369.63 232.984L1372.97 242.997L1404.68 212.956L1419.25 170.343L1380.2 182.915Z" fill="white" stroke="#36B37E" stroke-width="1.35786" stroke-miterlimit="10"/>
<path d="M1477.54 151.54L1540.4 185.475L1380.2 182.916L1477.54 151.54Z" fill="#C5E9DA" stroke="#36B37E" stroke-width="1.35786" stroke-miterlimit="10"/>
<path d="M1372.97 185.475V177.687L1322.58 108.37L1315.9 118.94L1364.07 237.435L1369.63 232.984L1372.97 185.475Z" fill="white" stroke="#36B37E" stroke-width="1.35786" stroke-miterlimit="10"/>
<path d="M1322.58 108.369L1315.9 118.939L1293.43 139.857L1311.23 103.919L1322.58 108.369Z" fill="white" stroke="#36B37E" stroke-width="1.35786" stroke-miterlimit="10"/>
<path d="M1442.72 190.816L1380.2 182.916L1445.5 184.029L1442.72 190.816Z" fill="#172B4D"/>
<path d="M1386.99 180.802L1365.18 162.666L1364.29 165.781L1372.97 177.686V185.475L1386.99 180.802Z" fill="#172B4D"/>
<path d="M1359.4 226.085L1354.28 232.427L1347.61 226.085L1312.79 121.944L1315.9 118.939L1359.4 226.085Z" fill="#C5E9DA" stroke="#36B37E" stroke-width="1.35786" stroke-miterlimit="10"/>
</g>
<path d="M50.0469 314.819L278.485 311.866L189.963 287.513L199.941 266.407L256.558 258.638L242.055 255.275L203.073 253.535L50.0469 314.819Z" fill="#172B4D"/>
<path d="M176.389 207.034L169.428 207.15L111.535 185.58L176.969 222.689L187.643 213.876L176.389 207.034Z" fill="#36B37E"/>
<path d="M176.389 207.033L289.043 186.392L232.774 241.011L176.389 207.033Z" fill="#172B4D"/>
<path d="M111.535 185.58L223.957 249.477L198.665 254.115L136.711 258.638L111.535 185.58Z" fill="white" stroke="#36B37E" stroke-width="1.43685" stroke-miterlimit="10" stroke-linejoin="round"/>
<path d="M223.957 249.477L289.042 186.392L242.055 255.275L223.957 249.477Z" fill="white" stroke="#36B37E" stroke-width="1.43685" stroke-miterlimit="10" stroke-linejoin="round"/>
<path d="M176.969 222.689L206.09 198.685L209.106 201.12L199.941 235.793L176.969 222.689Z" fill="white" stroke="#36B37E" stroke-width="1.43685" stroke-miterlimit="10" stroke-linejoin="round"/>
<path d="M209.106 201.119L235.442 238.46L223.957 249.477L199.941 235.793L209.106 201.119Z" fill="white" stroke="#36B37E" stroke-width="1.43685" stroke-miterlimit="10" stroke-linejoin="round"/>
<path d="M242.055 255.275L198.665 254.115L223.956 249.477L242.055 255.275Z" fill="white" stroke="#36B37E" stroke-width="1.43685" stroke-miterlimit="10" stroke-linejoin="round"/>
<path d="M92.1605 237.416L82.8791 239.039L1.20264 222.572L96.3371 258.058L108.751 244.026L92.1605 237.416Z" fill="white" stroke="#36B37E" stroke-width="1.43685" stroke-miterlimit="10" stroke-linejoin="round"/>
<path d="M92.1604 237.416L237.879 186.392L174.417 270.466L92.1604 237.416Z" fill="#C5E9DA" stroke="#36B37E" stroke-width="1.43685" stroke-miterlimit="10"/>
<path d="M1.20264 222.572L164.672 283.454L131.839 295.05L50.1621 313.953L1.20264 222.572Z" fill="white" stroke="#36B37E" stroke-width="1.43685" stroke-miterlimit="10" stroke-linejoin="round"/>
<path d="M164.672 283.454L237.879 186.392L189.963 287.513L164.672 283.454Z" fill="white" stroke="#36B37E" stroke-width="1.43685" stroke-miterlimit="10" stroke-linejoin="round"/>
<path d="M96.3372 258.058L130.098 220.138L134.623 222.573L129.75 270.467L96.3372 258.058Z" fill="#36B37E"/>
<path d="M134.623 222.572L177.433 266.523L164.672 283.454L129.75 270.466L134.623 222.572Z" fill="white" stroke="#36B37E" stroke-width="1.43685" stroke-miterlimit="10" stroke-linejoin="round"/>
<path d="M189.963 287.513L131.838 295.051L164.671 283.454L189.963 287.513Z" fill="white" stroke="#36B37E" stroke-width="1.43685" stroke-miterlimit="10" stroke-linejoin="round"/>
<mask id="mask1_34_2543" style="mask-type:alpha" maskUnits="userSpaceOnUse" x="0" y="222" width="166" height="92">
<path d="M1 223.005L164.364 283.211L132.013 294.354L50.3367 313.256L1 223.005Z" fill="white" stroke="#36B37E" stroke-width="1.43685" stroke-miterlimit="10" stroke-linejoin="round"/>
</mask>
<g mask="url(#mask1_34_2543)">
<path d="M99.3538 285.889L81.6031 286.469L73.3658 272.205L56.3112 272.901L64.3165 287.049L47.4939 287.512L55.2671 301.776L72.4377 301.428L89.9564 300.964L98.5417 315.924L116.872 315.692L125.922 330.999H144.949L135.667 315.46L126.502 300.269L107.939 300.617L99.3538 285.889Z" fill="#C5E9DA"/>
<path d="M90.7683 271.394L82.415 257.246L65.2444 258.174L73.3656 272.206L90.7683 271.394Z" fill="#C5E9DA"/>
<path d="M117.452 285.31L108.751 270.582L90.7683 271.394L99.3536 285.889L117.452 285.31Z" fill="#36B37E"/>
<path d="M127.082 269.886L118.149 255.274L100.05 256.318L108.751 270.582L127.082 269.886Z" fill="#172B4D"/>
<path d="M136.131 284.614L117.452 285.309L126.502 300.269L145.413 299.805L164.904 299.341L155.274 284.034L145.877 269.074L127.082 269.886L136.131 284.614Z" fill="#36B37E"/>
<path d="M39.7205 273.597L56.311 272.901L48.5379 259.102L65.2444 258.174L57.3552 244.374L40.8807 245.418L24.7542 246.461L32.1794 259.913L16.2849 260.841L0.622559 261.653L7.69964 274.989L23.5941 274.293L31.0192 288.093L47.4937 287.513L39.7205 273.597Z" fill="#36B37E"/>
<path d="M14.8928 288.673L22.318 302.472L38.5604 302.125L31.0193 288.093L14.8928 288.673Z" fill="#36B37E"/>
<path d="M2.01465 234.516L9.09173 247.504L24.7541 246.46L17.561 233.356L2.01465 234.516Z" fill="#36B37E"/>
<path d="M82.415 257.246L100.05 256.318L91.5804 242.286L83.3432 228.486L66.2886 229.762L49.582 230.922L57.3552 244.374L74.2938 243.33L82.415 257.246Z" fill="#36B37E"/>
<path d="M127.662 239.967L109.447 241.126L118.149 255.274L136.711 254.346L127.662 239.967Z" fill="#36B37E"/>
<path d="M165.252 268.146L155.622 253.303L136.711 254.346L145.877 269.074L165.252 268.146Z" fill="#36B37E"/>
<path d="M38.5603 302.124L46.3335 316.504L63.2721 316.272L55.2668 301.776L38.5603 302.124Z" fill="#36B37E"/>
</g>
<defs>
<clipPath id="clip0_34_2543">
<rect width="273" height="245" fill="white" transform="matrix(-1 0 0 1 1542.62 0)"/>
</clipPath>
</defs>
</svg>
