<svg width="352" height="352" viewBox="0 0 352 352" fill="none" xmlns="http://www.w3.org/2000/svg">
<g clip-path="url(#clip0_34_2644)">
<path d="M276.599 241.792L178.961 246.078C178.6 246.078 178.058 246.26 177.696 246.621L145.136 279.148C144.774 279.51 144.593 280.051 144.591 280.773L145.96 311.81C145.958 312.893 146.858 313.794 148.122 313.612L231.876 304.473C232.417 304.291 232.959 304.11 233.321 303.749L251.432 276.294L251.613 276.114L278.395 245.038C279.301 243.773 278.223 241.609 276.599 241.792Z" fill="#172B4D"/>
<path d="M237.171 70.2809L127.229 78.9373L98.7385 122.881L126.148 238.44L158.594 263.636L222.349 258.633L233.942 225.449L266.733 189.451L237.171 70.2809Z" fill="white" stroke="#36B37E" stroke-width="1.55764" stroke-miterlimit="10" stroke-linejoin="round"/>
<path d="M233.942 225.449L175.867 122.162L237.171 70.2811L266.733 189.451L233.942 225.449Z" fill="#C5E9DA" stroke="#36B37E" stroke-width="1.55764" stroke-miterlimit="10" stroke-linejoin="round"/>
<path d="M222.349 258.634L207.595 178.319L233.942 225.449L222.349 258.634Z" fill="white" stroke="#36B37E" stroke-width="1.55764" stroke-miterlimit="10" stroke-linejoin="round"/>
<path d="M98.7384 122.882L175.867 122.162" stroke="#36B37E" stroke-width="1.55764" stroke-miterlimit="10" stroke-linejoin="round"/>
<path d="M190.238 109.966L169.046 111.693L162.831 122.222L185.905 139.858L190.238 109.966Z" fill="#C5E9DA" stroke="#36B37E" stroke-width="1.55764" stroke-miterlimit="10" stroke-linejoin="round"/>
<mask id="mask0_34_2644" style="mask-type:alpha" maskUnits="userSpaceOnUse" x="88" y="56" width="147" height="80">
<path d="M144.707 99.6432L159.133 103.954L168.721 94.0157L182.426 98.3277L172.838 107.905L186.363 112.037L176.956 121.795L163.25 117.844L149.184 113.893L139.054 124.013L124.266 120.063L113.775 130.544L98.2648 126.596L109.298 115.933L119.79 105.452L134.577 109.763L144.707 99.6432Z" fill="#C5E9DA"/>
<path d="M154.836 89.8843L164.604 80.1261L178.308 84.4381L168.721 94.0156L154.836 89.8843Z" fill="#36B37E"/>
<path d="M130.281 95.3317L140.59 85.3923L154.836 89.884L144.707 99.6427L130.281 95.3317Z" fill="#36B37E"/>
<path d="M125.984 80.9011L136.294 70.9617L150.719 75.6336L140.59 85.3923L125.984 80.9011Z" fill="#36B37E"/>
<path d="M115.314 90.8407L130.281 95.3314L119.79 105.452L104.642 101.142L88.9529 96.6519L99.9854 86.3505L110.837 76.2299L125.984 80.9008L115.314 90.8407Z" fill="#36B37E"/>
<path d="M195.589 102.46L182.426 98.3274L191.652 88.7504L178.308 84.4379L187.714 75.0411L200.697 79.3541L213.319 83.6676L204.634 93.0634L217.257 97.0159L229.699 101.149L221.195 110.364L208.572 106.412L199.346 115.989L186.363 112.037L195.589 102.46Z" fill="#5E78A5"/>
<path d="M212.33 119.94L203.465 129.517L190.3 125.746L199.346 115.988L212.33 119.94Z" fill="#36B37E"/>
<path d="M234.444 78.7661L225.941 87.9812L213.319 83.6677L222.184 74.4521L234.444 78.7661Z" fill="#36B37E"/>
<path d="M164.604 80.1259L150.72 75.6337L160.307 66.0562L170.074 56.6589L183.598 61.1516L196.759 66.0057L187.715 75.041L174.191 70.5484L164.604 80.1259Z" fill="#36B37E"/>
<path d="M131.998 56.5315L146.242 61.3841L136.294 70.9621L121.508 66.2907L131.998 56.5315Z" fill="#36B37E"/>
<path d="M95.5099 71.3787L106.362 61.2581L121.508 66.2899L110.837 76.2299L95.5099 71.3787Z" fill="#36B37E"/>
<path d="M190.3 125.746L181.073 135.684L167.187 131.913L176.956 121.794L190.3 125.746Z" fill="#36B37E"/>
</mask>
<g mask="url(#mask0_34_2644)">
<path d="M126.71 79.4566L236.267 71.1842L186.531 111.951L168.101 113.395L161.698 123.327L98.4537 123.166L126.71 79.4566Z" fill="#36B37E" stroke="#36B37E" stroke-width="1.55764" stroke-miterlimit="10" stroke-linejoin="round"/>
</g>
</g>
<defs>
<clipPath id="clip0_34_2644">
<rect width="236" height="261.092" fill="white" transform="matrix(-0.707463 0.706751 0.706751 0.707463 166.961 0)"/>
</clipPath>
</defs>
</svg>
