<svg class="svg-icon" style="width: 32px; height: 32px;vertical-align: middle;fill: currentColor;overflow: hidden;" viewBox="0 0 1024 1024" version="1.1" xmlns="http://www.w3.org/2000/svg"><path d="M512 32a480 480 0 1 0 0 960A480 480 0 0 0 512 32m0 51.42857156A429.05142844 429.05142844 0 0 1 940.57142844 512 429.05142844 429.05142844 0 0 1 512 940.57142844 429.05142844 429.05142844 0 0 1 83.42857156 512 429.05142844 429.05142844 0 0 1 512 83.42857156" fill="#dfe1e6" /><path d="M737.66857156 406.4a25.71428531 25.71428531 0 1 1 36.34285688 36.34285688L530.24 686.51428531a25.71428531 25.71428531 0 0 1-36.34285688 0L249.85142844 442.74285688a25.71428531 25.71428531 0 1 1 36.34285687-36.34285688L512 632.06857156l225.66857156-225.73714312z" fill="#172b4d" /></svg>